<?xml version="1.0" encoding="UTF-8"?>
<svg xmlns="http://www.w3.org/2000/svg" viewBox="-97.6 -111 195.2 222">
<path d="M 0,0 0,-3.703703703703703 -3.207407407444444,-5.5555555555555545 0,-7.407407407407406 0,-11.111111111111109 -3.2074074074444443,-12.96296296296296 -6.414814814888889,-11.111274074009923 -6.414814814888889,-14.814814814814813 -9.622222222333333,-16.666666666666664 -6.414814814888889,-18.518518518518515 -6.414814814888889,-22.2220592593234 -3.2074074074444443,-20.370370370370367 0,-22.222222222222218 0,-25.92592592592592 -3.2074074074444443,-27.77777777777777 0,-29.629629629629626 0,-33.33333333333333 -3.2074074074444443,-35.18518518518518 -6.4148148148888895,-33.33349629623214 -6.414814814888889,-37.03703703703703 -9.622222222333333,-38.888888888888886 -12.829629629777777,-37.03719999993585 -12.829770755648154,-33.33374074058037 -16.037037037222223,-35.18551111098281 -19.24444444466667,-33.333822222029774 -19.24444444466667,-37.03736296283466 -22.451710726240737,-38.88913333323711 -19.244444444666666,-40.74090370363955 -19.244444444666666,-44.44444444444444 -22.451851852111112,-46.2962962962963 -25.659259259555554,-44.444607407343256 -25.659259259555554,-48.148148148148145 -28.866666667,-50 -25.659259259555558,-51.85185185185185 -25.659259259555554,-55.55539259265674 -22.451851852111112,-53.7037037037037 -19.24444444466667,-55.55555555555555 -19.244444444666666,-59.25909629636044 -22.451710726240737,-61.11086666676289 -19.244444444666666,-62.96263703716533 -19.244444444666662,-66.66617777797022 -16.03703703722222,-64.81448888901718 -12.829770755648148,-66.66625925941962 -12.829629629777777,-62.96280000006414 -9.622222222333335,-61.1111111111111 -6.41481481488889,-62.962962962962955 -6.41481481488889,-66.66650370376784 -3.207407407444445,-64.81481481481481 0,-66.66666666666666 0,-70.37037037037037 -3.2074074074444456,-72.22222222222221 0,-74.07407407407406 0,-77.77777777777777 -3.207407407444445,-79.62962962962962 -6.414814814888891,-77.77794074067658 -6.41481481488889,-81.48148148148148 -9.622222222333336,-83.33333333333333 -6.414814814888891,-85.18518518518518 -6.414814814888891,-88.88872592599007 -3.207407407444446,-87.03703703703704 0,-88.88888888888889 0,-92.5925925925926 -3.2074074074444456,-94.44444444444444 0,-96.29629629629629 0,-100 0,-96.29629629629629 3.2074074074444456,-94.44444444444444 0,-92.5925925925926 0,-88.88888888888889 3.2074074074444443,-87.03703703703704 6.414814814888885,-88.88872592599007 6.414814814888889,-85.18518518518519 9.622222222333333,-83.33333333333334 6.414814814888889,-81.4814814814815 6.4148148148888895,-77.7779407406766 3.2074074074444443,-79.62962962962963 0,-77.77777777777779 0,-74.07407407407408 3.2074074074444456,-72.22222222222223 0,-70.37037037037038 0,-66.66666666666667 3.2074074074444443,-64.81481481481482 6.4148148148888895,-66.66650370376786 6.414814814888889,-62.96296296296297 9.622222222333333,-61.111111111111114 12.829629629777777,-62.96280000006415 12.829770755648156,-66.66625925941963 16.037037037222223,-64.81448888901718 19.24444444466667,-66.66617777797022 19.24444444466667,-62.96263703716533 22.451710726240737,-61.11086666676289 19.244444444666666,-59.25909629636045 19.244444444666666,-55.55555555555556 22.451851852111112,-53.7037037037037 25.659259259555554,-55.555392592656744 25.659259259555554,-51.851851851851855 28.866666667,-50 25.659259259555558,-48.14814814814815 25.659259259555554,-44.44460740734326 22.451851852111112,-46.2962962962963 19.24444444466667,-44.44444444444445 19.244444444666666,-40.74090370363956 22.451710726240737,-38.88913333323711 19.244444444666666,-37.03736296283467 19.244444444666662,-33.33382222202978 16.03703703722222,-35.18551111098282 12.829770755648148,-33.33374074058038 12.829629629777777,-37.03719999993586 9.622222222333335,-38.8888888888889 6.41481481488889,-37.037037037037045 6.41481481488889,-33.333496296232155 3.207407407444445,-35.1851851851852 0,-33.33333333333334 0,-29.629629629629637 3.2074074074444456,-27.777777777777786 0,-25.925925925925934 0,-22.22222222222223 3.207407407444445,-20.370370370370377 6.414814814888891,-22.222059259323416 6.41481481488889,-18.518518518518523 9.622222222333336,-16.66666666666667 6.414814814888891,-14.814814814814818 6.414814814888891,-11.111274074009929 3.207407407444446,-12.962962962962967 0,-11.111111111111114 0,-7.40740740740741 3.2074074074444456,-5.555555555555557 0,-3.703703703703705 0,0 3.2074074074074064,-1.8518518518518514 3.207407407388888,-5.555392592624665 6.414814814814813,-3.703703703703703 9.62222222222222,-5.5555555555555545 9.622222222203701,-9.25909629632837 6.4149559406481504,-11.11086666669874 9.622222222185185,-12.962637037101183 9.622222222166666,-16.666177777873997 12.82962962959259,-14.814488888953035 16.036895911129623,-16.666259259355478 16.037037037018514,-12.962800000032072 19.24444444444444,-11.111111111111109 22.45185185185185,-12.96296296296296 22.45185185183333,-16.666503703735778 25.659259259259255,-14.814814814814813 28.866666666666664,-16.666666666666664 28.866666666648143,-20.37020740743948 25.659400385092592,-22.221977777809848 28.866666666629627,-24.073748148212292 28.866666666611106,-27.777288888985108 25.659400385055555,-29.62905925935548 22.452134103518517,-27.777451844681483 22.4521341035,-31.48082962972585 19.24486782194445,-33.33260000009622 22.452134103481484,-35.18437037049866 22.452134103462967,-38.88774815554303 25.659400385018518,-37.03614074090111 28.866666666555552,-38.88791111130355 28.866666666537032,-42.59145185207637 25.65940038498148,-44.443222222446735 28.866666666518515,-46.294992592849184 28.866666666499995,-49.998533333622 32.07407407392592,-48.14684444470104 35.28134035546296,-49.99861481510348 35.28148148135185,-46.29515555578007 38.48888888877777,-44.44346666685911 41.6961551703148,-46.29523703726155 41.69615517029629,-49.99861482230592 44.90342145185184,-48.147007407664 48.11068773338887,-49.99877777806644 48.11082885927777,-46.29531851874303 51.318095140833314,-44.44371110410111 48.110969985166655,-42.59185925941963 48.11111111105555,-38.88840000009622 51.318518518481476,-37.03671111117526 54.52578480001851,-38.8884814815777 54.5259259259074,-35.18502222225429 57.73333333333333,-33.33333333333333 60.940740740740736,-35.18518518518518 60.94074074072222,-38.888725925958 64.14814814814815,-37.03703703703703 67.35555555555555,-38.888888888888886 67.35555555553704,-42.5924296296617 64.14828927398148,-44.44420000003207 67.3555555555185,-46.29597037043452 67.35555555549999,-49.99951111120733 70.56296296292592,-48.14782222228637 73.77022924446295,-49.99959259268881 73.77037037035184,-46.296133333365404 76.97777777777777,-44.44444444444444 80.18518518518518,-46.2962962962963 80.18518518516666,-49.99983703706911 83.39259259259259,-48.148148148148145 86.6,-50 83.39259259259259,-48.148148148148145 83.39259259261111,-44.44460740737533 80.18518518518518,-46.2962962962963 76.97777777777777,-44.44444444444444 76.97777777779629,-40.74090370367163 80.18504405935184,-38.88913333330126 76.97777777781481,-37.03736296289882 76.97777777783332,-33.333822222126 73.7703703704074,-35.185511111046964 70.56310408887038,-33.33374074064452 70.56296296298147,-37.03719999996793 67.35555555555555,-38.88888888888889 64.14814814814815,-37.03703703703704 64.14814814816667,-33.33349629626423 60.94074074074074,-35.18518518518519 57.733333333333334,-33.333333333333336 57.73333333335185,-29.62979259256052 60.940599614907406,-27.778022222190152 57.733333333370375,-25.926251851787708 57.73333333338889,-22.222711111014892 60.94059961494444,-20.37094074064452 64.14786589648148,-22.222548155318513 64.1478658965,-18.51917037027415 67.35513217805554,-16.66739999990378 64.14786589651851,-14.815629629501336 64.14786589653703,-11.11225184445697 60.94059961498147,-12.963859259098893 57.73333333344444,-11.112088888696448 57.73333333346296,-7.408548147923632 60.94059961501851,-5.556777777553262 57.73333333348148,-3.7050074071508163 57.7333333335,-0.0014666663780005251 54.52592592607407,-1.8531555552989638 51.318659644537036,-0.0013851848965198421 51.31851851864815,-3.704844444219927 48.11111111122222,-5.556533333140891 44.90384482968519,-3.704762962738447 44.90384482970371,-0.0013851776940807525 41.69657854814815,-1.8529925923360024 38.48931226661112,-0.001222221933558032 38.48917114072223,-3.7046814812569657 35.28190485916668,-5.556288895898887 38.48903001483334,-7.408140740580373 38.488888888944444,-11.111599999903781 35.28148148151852,-12.963288888824744 32.07421519998148,-11.1115185184223 32.07407407409259,-14.814977777745707 28.866666666666667,-16.66666666666667 25.65925925925926,-14.814814814814818 25.659259259277782,-11.111274074042004 22.451851851851856,-12.962962962962967 19.244444444444447,-11.111111111111114 19.244444444462964,-7.4075703703382985 22.45171072601852,-5.5557999999679275 19.244444444481484,-3.7040296295654827 19.2444444445,-0.0004888887926668417 16.037037037074075,-1.8521777777136301 12.82977075553704,-0.0004074073111861587 12.82962962964815,-3.7038666666345934 9.622222222222224,-5.555555555555557 6.414814814814816,-3.703703703703705 6.414814814833335,-0.0001629629308892433 3.207407407407408,-1.8518518518518525 0,0 3.2074074074074064,1.8518518518518514 6.414814814833332,0.0001629629308887992 6.414814814814813,3.703703703703703 9.62222222222222,5.5555555555555545 12.829629629648146,3.7038666666345916 12.829770755537037,0.00040740731118393825 16.03703703707407,1.8521777777136283 19.244444444499997,0.0004888887926650654 19.244444444481477,3.7040296295654795 22.45171072601851,5.555799999967925 19.24444444446296,7.407570370338294 19.24444444444444,11.111111111111109 22.45185185185185,12.96296296296296 25.659259259277775,11.111274074041997 25.659259259259255,14.814814814814813 28.866666666666664,16.666666666666664 32.07407407409259,14.814977777745701 32.07421519998148,11.111518518422294 35.28148148151852,12.96328888882474 38.488888888944444,11.111599999903778 38.48903001483334,7.40814074058037 35.28190485916668,5.5562888958988825 38.48917114072223,3.7046814812569613 38.48931226661112,0.001222221933552703 41.69657854814815,1.852992592335998 44.9038448297037,0.0013851776940794203 44.903844829685184,3.7047629627384433 48.111111111222215,5.556533333140889 51.31851851864814,3.704844444219926 51.318659644537036,0.0013851848965167335 54.52592592607407,1.8531555552989634 57.7333333335,0.0014666663780005251 57.73333333348148,3.7050074071508146 60.94059961501851,5.556777777553259 57.73333333346296,7.408548147923629 57.73333333344444,11.112088888696443 60.94059961498147,12.963859259098887 64.14786589653703,11.112251844456967 64.14786589651851,14.815629629501334 67.35513217805554,16.66739999990378 64.1478658965,18.519170370274146 64.14786589648148,22.222548155318513 60.94059961494444,20.370940740644517 57.733333333388885,22.222711111014885 57.73333333337037,25.9262518517877 60.9405996149074,27.778022222190145 57.733333333351844,29.629792592560513 57.73333333333333,33.33333333333333 60.940740740740736,35.18518518518518 64.14814814816667,33.333496296264215 64.14814814814815,37.03703703703703 67.35555555555555,38.888888888888886 70.56296296298147,37.037199999967925 70.56310408887038,33.333740740644515 73.7703703704074,35.18551111104696 76.97777777783332,33.333822222125995 76.97777777781481,37.03736296289881 80.18504405935184,38.88913333330125 76.97777777779629,40.74090370367163 76.97777777777777,44.44444444444444 80.18518518518518,46.2962962962963 83.39259259261111,44.44460740737533 83.39259259259259,48.148148148148145 86.6,50 83.39259259259259,48.148148148148145 80.18518518516666,49.99983703706911 80.18518518518518,46.2962962962963 76.97777777777777,44.44444444444444 73.77037037035184,46.296133333365404 73.77022924446295,49.99959259268881 70.56296296292592,48.14782222228637 67.35555555549999,49.99951111120733 67.3555555555185,46.29597037043452 64.14828927398148,44.444200000032076 67.35555555553704,42.59242962966171 67.35555555555555,38.88888888888889 64.14814814814815,37.03703703703704 60.94074074072222,38.888725925958 60.94074074074074,35.18518518518519 57.733333333333334,33.333333333333336 54.52592592590741,35.1850222222543 54.52578480001851,38.888481481577706 51.31851851848148,37.036711111175265 48.11111111105556,38.888400000096226 48.11096998516666,42.591859259419635 51.31809514083332,44.44371110410112 48.11082885927777,46.29531851874304 48.11068773338887,49.99877777806645 44.90342145185184,48.147007407664 41.696155170296294,49.99861482230592 41.69615517031481,46.29523703726156 38.48888888877778,44.44346666685911 35.281481481351854,46.29515555578007 35.28134035546296,49.99861481510348 32.07407407392592,48.14684444470104 28.866666666499995,49.998533333622 28.866666666518515,46.294992592849184 25.65940038498148,44.44322222244674 28.866666666537032,42.591451852076375 28.866666666555552,38.88791111130356 25.659400385018518,37.03614074090111 22.452134103462967,38.887748155543036 22.452134103481487,35.18437037049867 19.244867821944453,33.33260000009622 22.452134103500004,31.480829629725854 22.452134103518524,27.777451844681487 25.659400385055555,29.629059259355483 28.86666666661111,27.777288888985115 28.86666666662963,24.0737481482123 25.659400385092596,22.221977777809855 28.866666666648147,20.370207407439487 28.866666666666667,16.66666666666667 25.65925925925926,14.814814814814818 22.451851851833332,16.66650370373578 22.451851851851856,12.962962962962967 19.244444444444447,11.111111111111114 16.03703703701852,12.962800000032077 16.036895911129626,16.666259259355485 12.829629629592594,14.81448888895304 9.622222222166666,16.666177777874005 9.622222222185185,12.962637037101189 6.4149559406481504,11.110866666698744 9.622222222203705,9.259096296328373 9.622222222222224,5.555555555555557 6.414814814814816,3.703703703703705 3.2074074073888887,5.555392592624668 3.207407407407408,1.8518518518518525 0,0 0,3.703703703703703 3.207407407444444,5.5555555555555545 0,7.407407407407406 0,11.111111111111109 3.2074074074444443,12.96296296296296 6.414814814888889,11.111274074009923 6.414814814888889,14.814814814814813 9.622222222333333,16.666666666666664 6.414814814888889,18.518518518518515 6.414814814888889,22.2220592593234 3.2074074074444443,20.370370370370367 0,22.222222222222218 0,25.92592592592592 3.2074074074444443,27.77777777777777 0,29.629629629629626 0,33.33333333333333 3.2074074074444443,35.18518518518518 6.4148148148888895,33.33349629623214 6.414814814888889,37.03703703703703 9.622222222333333,38.888888888888886 12.829629629777777,37.03719999993585 12.829770755648154,33.33374074058037 16.037037037222223,35.18551111098281 19.24444444466667,33.333822222029774 19.24444444466667,37.03736296283466 22.451710726240737,38.88913333323711 19.244444444666666,40.74090370363955 19.244444444666666,44.44444444444444 22.451851852111112,46.2962962962963 25.659259259555554,44.444607407343256 25.659259259555554,48.148148148148145 28.866666667,50 25.659259259555558,51.85185185185185 25.659259259555554,55.55539259265674 22.451851852111112,53.7037037037037 19.24444444466667,55.55555555555555 19.244444444666666,59.25909629636044 22.451710726240737,61.11086666676289 19.244444444666666,62.96263703716533 19.244444444666662,66.66617777797022 16.03703703722222,64.81448888901718 12.829770755648148,66.66625925941962 12.829629629777777,62.96280000006414 9.622222222333335,61.1111111111111 6.41481481488889,62.962962962962955 6.41481481488889,66.66650370376784 3.207407407444445,64.81481481481481 0,66.66666666666666 0,70.37037037037037 3.2074074074444456,72.22222222222221 0,74.07407407407406 0,77.77777777777777 3.207407407444445,79.62962962962962 6.414814814888891,77.77794074067658 6.41481481488889,81.48148148148148 9.622222222333336,83.33333333333333 6.414814814888891,85.18518518518518 6.414814814888891,88.88872592599007 3.207407407444446,87.03703703703704 0,88.88888888888889 0,92.5925925925926 3.2074074074444456,94.44444444444444 0,96.29629629629629 0,100 0,96.29629629629629 -3.2074074074444456,94.44444444444444 0,92.5925925925926 0,88.88888888888889 -3.2074074074444443,87.03703703703704 -6.414814814888885,88.88872592599007 -6.414814814888889,85.18518518518519 -9.622222222333333,83.33333333333334 -6.414814814888889,81.4814814814815 -6.4148148148888895,77.7779407406766 -3.2074074074444443,79.62962962962963 0,77.77777777777779 0,74.07407407407408 -3.2074074074444456,72.22222222222223 0,70.37037037037038 0,66.66666666666667 -3.2074074074444443,64.81481481481482 -6.4148148148888895,66.66650370376786 -6.414814814888889,62.96296296296297 -9.622222222333333,61.111111111111114 -12.829629629777777,62.96280000006415 -12.829770755648156,66.66625925941963 -16.037037037222223,64.81448888901718 -19.24444444466667,66.66617777797022 -19.24444444466667,62.96263703716533 -22.451710726240737,61.11086666676289 -19.244444444666666,59.25909629636045 -19.244444444666666,55.55555555555556 -22.451851852111112,53.7037037037037 -25.659259259555554,55.555392592656744 -25.659259259555554,51.851851851851855 -28.866666667,50 -25.659259259555558,48.14814814814815 -25.659259259555554,44.44460740734326 -22.451851852111112,46.2962962962963 -19.24444444466667,44.44444444444445 -19.244444444666666,40.74090370363956 -22.451710726240737,38.88913333323711 -19.244444444666666,37.03736296283467 -19.244444444666662,33.33382222202978 -16.03703703722222,35.18551111098282 -12.829770755648148,33.33374074058038 -12.829629629777777,37.03719999993586 -9.622222222333335,38.8888888888889 -6.41481481488889,37.037037037037045 -6.41481481488889,33.333496296232155 -3.207407407444445,35.1851851851852 0,33.33333333333334 0,29.629629629629637 -3.2074074074444456,27.777777777777786 0,25.925925925925934 0,22.22222222222223 -3.207407407444445,20.370370370370377 -6.414814814888891,22.222059259323416 -6.41481481488889,18.518518518518523 -9.622222222333336,16.66666666666667 -6.414814814888891,14.814814814814818 -6.414814814888891,11.111274074009929 -3.207407407444446,12.962962962962967 0,11.111111111111114 0,7.40740740740741 -3.2074074074444456,5.555555555555557 0,3.703703703703705 0,0 -3.2074074074074064,1.8518518518518514 -3.207407407388888,5.555392592624665 -6.414814814814813,3.703703703703703 -9.62222222222222,5.5555555555555545 -9.622222222203701,9.25909629632837 -6.4149559406481504,11.11086666669874 -9.622222222185185,12.962637037101183 -9.622222222166666,16.666177777873997 -12.82962962959259,14.814488888953035 -16.036895911129623,16.666259259355478 -16.037037037018514,12.962800000032072 -19.24444444444444,11.111111111111109 -22.45185185185185,12.96296296296296 -22.45185185183333,16.666503703735778 -25.659259259259255,14.814814814814813 -28.866666666666664,16.666666666666664 -28.866666666648143,20.37020740743948 -25.659400385092592,22.221977777809848 -28.866666666629627,24.073748148212292 -28.866666666611106,27.777288888985108 -25.659400385055555,29.62905925935548 -22.452134103518517,27.777451844681483 -22.4521341035,31.48082962972585 -19.24486782194445,33.33260000009622 -22.452134103481484,35.18437037049866 -22.452134103462967,38.88774815554303 -25.659400385018518,37.03614074090111 -28.866666666555552,38.88791111130355 -28.866666666537032,42.59145185207637 -25.65940038498148,44.443222222446735 -28.866666666518515,46.294992592849184 -28.866666666499995,49.998533333622 -32.07407407392592,48.14684444470104 -35.28134035546296,49.99861481510348 -35.28148148135185,46.29515555578007 -38.48888888877777,44.44346666685911 -41.6961551703148,46.29523703726155 -41.69615517029629,49.99861482230592 -44.90342145185184,48.147007407664 -48.11068773338887,49.99877777806644 -48.11082885927777,46.29531851874303 -51.318095140833314,44.44371110410111 -48.110969985166655,42.59185925941963 -48.11111111105555,38.88840000009622 -51.318518518481476,37.03671111117526 -54.52578480001851,38.8884814815777 -54.5259259259074,35.18502222225429 -57.73333333333333,33.33333333333333 -60.940740740740736,35.18518518518518 -60.94074074072222,38.888725925958 -64.14814814814815,37.03703703703703 -67.35555555555555,38.888888888888886 -67.35555555553704,42.5924296296617 -64.14828927398148,44.44420000003207 -67.3555555555185,46.29597037043452 -67.35555555549999,49.99951111120733 -70.56296296292592,48.14782222228637 -73.77022924446295,49.99959259268881 -73.77037037035184,46.296133333365404 -76.97777777777777,44.44444444444444 -80.18518518518518,46.2962962962963 -80.18518518516666,49.99983703706911 -83.39259259259259,48.148148148148145 -86.6,50 -83.39259259259259,48.148148148148145 -83.39259259261111,44.44460740737533 -80.18518518518518,46.2962962962963 -76.97777777777777,44.44444444444444 -76.97777777779629,40.74090370367163 -80.18504405935184,38.88913333330126 -76.97777777781481,37.03736296289882 -76.97777777783332,33.333822222126 -73.7703703704074,35.185511111046964 -70.56310408887038,33.33374074064452 -70.56296296298147,37.03719999996793 -67.35555555555555,38.88888888888889 -64.14814814814815,37.03703703703704 -64.14814814816667,33.33349629626423 -60.94074074074074,35.18518518518519 -57.733333333333334,33.333333333333336 -57.73333333335185,29.62979259256052 -60.940599614907406,27.778022222190152 -57.733333333370375,25.926251851787708 -57.73333333338889,22.222711111014892 -60.94059961494444,20.37094074064452 -64.14786589648148,22.222548155318513 -64.1478658965,18.51917037027415 -67.35513217805554,16.66739999990378 -64.14786589651851,14.815629629501336 -64.14786589653703,11.11225184445697 -60.94059961498147,12.963859259098893 -57.73333333344444,11.112088888696448 -57.73333333346296,7.408548147923632 -60.94059961501851,5.556777777553262 -57.73333333348148,3.7050074071508163 -57.7333333335,0.0014666663780005251 -54.52592592607407,1.8531555552989638 -51.318659644537036,0.0013851848965198421 -51.31851851864815,3.704844444219927 -48.11111111122222,5.556533333140891 -44.90384482968519,3.704762962738447 -44.90384482970371,0.0013851776940807525 -41.69657854814815,1.8529925923360024 -38.48931226661112,0.001222221933558032 -38.48917114072223,3.7046814812569657 -35.28190485916668,5.556288895898887 -38.48903001483334,7.408140740580373 -38.488888888944444,11.111599999903781 -35.28148148151852,12.963288888824744 -32.07421519998148,11.1115185184223 -32.07407407409259,14.814977777745707 -28.866666666666667,16.66666666666667 -25.65925925925926,14.814814814814818 -25.659259259277782,11.111274074042004 -22.451851851851856,12.962962962962967 -19.244444444444447,11.111111111111114 -19.244444444462964,7.4075703703382985 -22.45171072601852,5.5557999999679275 -19.244444444481484,3.7040296295654827 -19.2444444445,0.0004888887926668417 -16.037037037074075,1.8521777777136301 -12.82977075553704,0.0004074073111861587 -12.82962962964815,3.7038666666345934 -9.622222222222224,5.555555555555557 -6.414814814814816,3.703703703703705 -6.414814814833335,0.0001629629308892433 -3.207407407407408,1.8518518518518525 0,0 -3.2074074074074064,-1.8518518518518514 -6.414814814833332,-0.0001629629308887992 -6.414814814814813,-3.703703703703703 -9.62222222222222,-5.5555555555555545 -12.829629629648146,-3.7038666666345916 -12.829770755537037,-0.00040740731118393825 -16.03703703707407,-1.8521777777136283 -19.244444444499997,-0.0004888887926650654 -19.244444444481477,-3.7040296295654795 -22.45171072601851,-5.555799999967925 -19.24444444446296,-7.407570370338294 -19.24444444444444,-11.111111111111109 -22.45185185185185,-12.96296296296296 -25.659259259277775,-11.111274074041997 -25.659259259259255,-14.814814814814813 -28.866666666666664,-16.666666666666664 -32.07407407409259,-14.814977777745701 -32.07421519998148,-11.111518518422294 -35.28148148151852,-12.96328888882474 -38.488888888944444,-11.111599999903778 -38.48903001483334,-7.40814074058037 -35.28190485916668,-5.5562888958988825 -38.48917114072223,-3.7046814812569613 -38.48931226661112,-0.001222221933552703 -41.69657854814815,-1.852992592335998 -44.9038448297037,-0.0013851776940794203 -44.903844829685184,-3.7047629627384433 -48.111111111222215,-5.556533333140889 -51.31851851864814,-3.704844444219926 -51.318659644537036,-0.0013851848965167335 -54.52592592607407,-1.8531555552989634 -57.7333333335,-0.0014666663780005251 -57.73333333348148,-3.7050074071508146 -60.94059961501851,-5.556777777553259 -57.73333333346296,-7.408548147923629 -57.73333333344444,-11.112088888696443 -60.94059961498147,-12.963859259098887 -64.14786589653703,-11.112251844456967 -64.14786589651851,-14.815629629501334 -67.35513217805554,-16.66739999990378 -64.1478658965,-18.519170370274146 -64.14786589648148,-22.222548155318513 -60.94059961494444,-20.370940740644517 -57.733333333388885,-22.222711111014885 -57.73333333337037,-25.9262518517877 -60.9405996149074,-27.778022222190145 -57.733333333351844,-29.629792592560513 -57.73333333333333,-33.33333333333333 -60.940740740740736,-35.18518518518518 -64.14814814816667,-33.333496296264215 -64.14814814814815,-37.03703703703703 -67.35555555555555,-38.888888888888886 -70.56296296298147,-37.037199999967925 -70.56310408887038,-33.333740740644515 -73.7703703704074,-35.18551111104696 -76.97777777783332,-33.333822222125995 -76.97777777781481,-37.03736296289881 -80.18504405935184,-38.88913333330125 -76.97777777779629,-40.74090370367163 -76.97777777777777,-44.44444444444444 -80.18518518518518,-46.2962962962963 -83.39259259261111,-44.44460740737533 -83.39259259259259,-48.148148148148145 -86.6,-50 -83.39259259259259,-48.148148148148145 -80.18518518516666,-49.99983703706911 -80.18518518518518,-46.2962962962963 -76.97777777777777,-44.44444444444444 -73.77037037035184,-46.296133333365404 -73.77022924446295,-49.99959259268881 -70.56296296292592,-48.14782222228637 -67.35555555549999,-49.99951111120733 -67.3555555555185,-46.29597037043452 -64.14828927398148,-44.444200000032076 -67.35555555553704,-42.59242962966171 -67.35555555555555,-38.88888888888889 -64.14814814814815,-37.03703703703704 -60.94074074072222,-38.888725925958 -60.94074074074074,-35.18518518518519 -57.733333333333334,-33.333333333333336 -54.52592592590741,-35.1850222222543 -54.52578480001851,-38.888481481577706 -51.31851851848148,-37.036711111175265 -48.11111111105556,-38.888400000096226 -48.11096998516666,-42.591859259419635 -51.31809514083332,-44.44371110410112 -48.11082885927777,-46.29531851874304 -48.11068773338887,-49.99877777806645 -44.90342145185184,-48.147007407664 -41.696155170296294,-49.99861482230592 -41.69615517031481,-46.29523703726156 -38.48888888877778,-44.44346666685911 -35.281481481351854,-46.29515555578007 -35.28134035546296,-49.99861481510348 -32.07407407392592,-48.14684444470104 -28.866666666499995,-49.998533333622 -28.866666666518515,-46.294992592849184 -25.65940038498148,-44.44322222244674 -28.866666666537032,-42.591451852076375 -28.866666666555552,-38.88791111130356 -25.659400385018518,-37.03614074090111 -22.452134103462967,-38.887748155543036 -22.452134103481487,-35.18437037049867 -19.244867821944453,-33.33260000009622 -22.452134103500004,-31.480829629725854 -22.452134103518524,-27.777451844681487 -25.659400385055555,-29.629059259355483 -28.86666666661111,-27.777288888985115 -28.86666666662963,-24.0737481482123 -25.659400385092596,-22.221977777809855 -28.866666666648147,-20.370207407439487 -28.866666666666667,-16.66666666666667 -25.65925925925926,-14.814814814814818 -22.451851851833332,-16.66650370373578 -22.451851851851856,-12.962962962962967 -19.244444444444447,-11.111111111111114 -16.03703703701852,-12.962800000032077 -16.036895911129626,-16.666259259355485 -12.829629629592594,-14.81448888895304 -9.622222222166666,-16.666177777874005 -9.622222222185185,-12.962637037101189 -6.4149559406481504,-11.110866666698744 -9.622222222203705,-9.259096296328373 -9.622222222222224,-5.555555555555557 -6.414814814814816,-3.703703703703705 -3.2074074073888887,-5.555392592624668 -3.207407407407408,-1.8518518518518525 0,0" style="fill:none;stroke:black;stroke-width:1;" />
</svg>

